<svg xmlns="http://www.w3.org/2000/svg" version="1.1" xmlns:xlink="http://www.w3.org/1999/xlink" xmlns:svgjs="http://svgjs.dev/svgjs" width="1500" height="1500" viewBox="0 0 1500 1500"><rect width="1500" height="1500" fill="#000000"></rect><g transform="matrix(0.6666666666666666,0,0,0.6666666666666666,250.00007343750008,187.66666666666674)"><svg viewBox="0 0 320 360" data-background-color="#ffffff" preserveAspectRatio="xMidYMid meet" height="1687" width="1500" xmlns="http://www.w3.org/2000/svg" xmlns:xlink="http://www.w3.org/1999/xlink"><g id="tight-bounds" transform="matrix(1,0,0,1,0.000023499999997511622,0)"><svg viewBox="0 0 320 360" height="360" width="320"><g><svg></svg></g><g><svg viewBox="0 0 320 360" height="360" width="320"><g><path transform="translate(-74.99272,-51.79039) scale(4.65793,4.65793)" d="M20.6 59.9l0.8 1-0.4-1.3c-0.1-0.6-0.8 0.1-0.4 0.3M21.5 59.3c0.3 0.5 0.6 1 0.6 1.5 0 0.7 0.6 1 1.1 1.2-0.7-0.8-1.1-3-1.7-2.7M59.9 16.9c1.7 0 3.3-0.2 5.1 0.2 4.4 1.1 8.1 3.3 10.6 6.4l7 11.2c0.3 2.8 0.9 5.9 0.8 9.3 0.7 0 0.6-1 1.4-1.2-0.8 2-1.2 4.5-1.4 7.4-0.5-1.6 0-4 0.1-5.3-0.7 1.1-1.1 0.3-1.1-0.2 0.1-0.8-0.3-0.7-0.6-1-1.1-1-1.8-2.1-2.6-3.8 0.5-1.3 0.6-3.2-1-4.2-0.5-0.3-1.1-0.8-1.4-1.6-0.4-1.1-1.1-2.4-0.9-4.1 0.1-0.5-1.5 1.1-2.4 0.4-3.9-2.7-7.8-5.8-12.5-8.4-2.5 0-4.3-0.9-5.2-2-0.8-1-0.2-2.3 1-2.4 0.7 0 1.5-0.2 2.1 0.2 0.1-0.4 0.5-0.9 1-0.9M50 14.6l0.2 0.1c1 0.2 1.5 1.6 2.6 1.1 0 0.7 0.1 1.4-0.1 1.9-0.3 0.8-1.2 0.8-1.9 0.8-6.7-0.4-10.6 2.4-14.7 4.8-1.1 0.7-2.3 1.2-3.2 2.1-4.3 4-9 7.7-10.1 15.1l-0.9 8.2c-0.1 0.9-1.1 1.8-0.9 2.9l0.7 4.9c-0.7-0.7-1.1 0.2-0.9 0.6 0.1 0.3 0.5 1.3 1.1 0.4 0.8 1.5 1.6 4.4 2.7 5.7 3.4 4 7.8 7.6 11.4 11.2 0.9-0.2 1.6-0.2 1.8-0.8 0.3 0.6-0.3 1.2-0.8 1.3 1.6 1 3.4 1.9 5.8 2.1 3.1 0.2 6 0.7 8.7 1.4 1.4-0.4 2.8-0.6 4.3-0.7 0.5 0 0.8-0.8 1.4-1l0.1-1c0.6 0.9 0.5-0.3 0.1-0.9 0.7 0.6 0.9 1.1 1.2 1.5 0-0.3 0.8-1.4 0.8-0.1l0.2-1.3c0.3-0.2 0.4 1.1 0.7 0.2 0.3-0.9 0.9-0.2 1.5-0.5-0.2 0.4-0.1 1.2 0.6 0.7l0.8-0.7c0.5 1.2 1.3 0.7 1.7 0.5 4.4-2.8 8.8-6.1 13-9.4l-0.1 1.3 0.5-1.6c0.5 0.5 0.9 0.1 1.1-0.2 0.6-1 1.4-2 2.7-2.9-1.6 4.3-3.5 7.7-5.9 10.5l-1 1.2c0 0.7-0.2 1.6-1 1.7-0.4 0.1-1.2-0.2-1.8 0.4-0.3 0.4 0.7 1.2-0.1 0.6-0.7-0.5-1.4 0-2.2 0.2-0.6 0.2 0.4 0.8 0.6 1.2 0.2 0.4 0.4 0.8 0.3 1.3l-1.1-1.2c-1.3 0.7-2.1 2-3.2 3-0.5 0.4-0.3 1.1-0.3 1.7-0.7 0-1.5-0.2-1.9 0.2-0.3 0.4-0.2 1-0.2 1.6-1-0.1-1.1-1.6-2-1.3-0.9 0.2-1.9 0.3-2.7 0.8 0.6 1.2-1 0.5-0.8 0.7-1.5-0.9-2.8-1.6-4.4-1-3.4-1.1-7.6-0.6-10.7-0.2 0-0.5 0.1-1-0.1-1.1-0.2 0.5-0.8 0.3-0.7 0.3-1.9-1.3-3.8-2.1-5.8-3.2-1.8 0.2-3.5-0.7-4-1.2-1.4-1.3-3-0.6-4.3-0.9-2.8-0.7-3.8-3.6-4.1-5.6-0.2-1-1-1.4-1.3-1.3-1.3-4.2-3.3-8-4.9-11.9-0.4-1-0.3-2-0.3-3.1 0.5 0.2 1 0.1 0.9-0.6-0.5-3.3-1.7-5.8-3-8.2 0.7-3.4 0.8-7.4 2.4-10.4 1.4-2.7 4-4.1 5.8-6.4 0.6-0.8 0.6-1.9 1.2-2.6 2-2 4-4.1 6.2-5.9 1-0.8 2.2 0 3.7-0.3 0.5-1.8 2.5-3.4 4.4-2.9 0.8 0.2 2.4-1.9 2.9-2.1 0.8-0.3 0.4 0.8 0.4 1.5 1.9-1.5 4.5-2.3 6.9-3.2" fill="#ffffff" fill-rule="nonzero" stroke="none" stroke-width="1" stroke-linecap="butt" stroke-linejoin="miter" stroke-miterlimit="10" stroke-dasharray="" stroke-dashoffset="0" font-family="none" font-weight="none" font-size="none" text-anchor="none" style="mix-blend-mode: normal" data-fill-palette-color="tertiary"></path></g><g transform="matrix(1,0,0,1,64,131.7160192541851)"><svg viewBox="0 0 192 96.56796149162977" height="96.56796149162977" width="192"><g><svg viewBox="0 0 192 96.56796149162977" height="96.56796149162977" width="192"><g><svg viewBox="0 0 192 96.56796149162977" height="96.56796149162977" width="192"><g transform="matrix(1,0,0,1,0,58.367461203001724)"><svg viewBox="0 0 192 38.20050028862805" height="38.20050028862805" width="192"><g id="textblocktransform"><svg viewBox="0 0 192 38.20050028862805" height="38.20050028862805" width="192" id="textblock"><g><svg viewBox="0 0 192 38.20050028862805" height="38.20050028862805" width="192"><g transform="matrix(1,0,0,1,0,0)"><svg width="192" viewBox="0.24 -34.86 253.73999999999998 50.49" height="38.20050028862805" data-palette-color="#0718c4"><path d="M18.07 0L0.44 0Q0.24 0 0.24-0.2L0.24-0.2 0.24-0.78Q0.24-0.98 0.59-0.98L0.59-0.98Q1.73-0.98 3.13-1.22L3.13-1.22Q7.59-1.98 7.59-4.3L7.59-4.3 7.59-30.05Q7.35-33.18 4.74-33.45L4.74-33.45Q3.96-33.54 3-33.54L3-33.54 1.61-33.54Q1.42-33.54 1.42-33.74L1.42-33.74 1.42-34.35Q1.42-34.55 1.61-34.55L1.61-34.55 2.69-34.57 6.88-34.59 15.58-34.86Q29.54-34.86 29.54-26.61L29.54-26.61Q29.54-23.12 25.93-20.8L25.93-20.8Q25.37-20.43 24.96-20.26 24.56-20.09 24.51-20.07L24.51-20.07Q27.73-18.26 29.58-16.02 31.42-13.77 31.42-10.64L31.42-10.64Q31.42-3.98 25.12-1.37L25.12-1.37Q21.88 0 18.07 0L18.07 0ZM16.67-19.04L12.79-19.04Q12.48-19.04 12.48-18.77L12.48-18.77 12.48-5.4Q12.48-3.66 14.1-2.61 15.72-1.56 17.6-1.56L17.6-1.56Q21.22-1.56 23.75-4.14 26.29-6.71 26.29-10.49 26.29-14.26 23.57-16.65 20.85-19.04 16.67-19.04L16.67-19.04ZM12.43-32.2L12.43-21.02Q12.43-20.56 12.99-20.56L12.99-20.56 18.99-20.56Q21.34-20.56 22.94-22.29 24.54-24.02 24.54-26.17L24.54-26.17Q24.54-30 22.36-31.73 20.19-33.45 16.58-33.45L16.58-33.45Q15.48-33.37 15.05-33.37 14.62-33.37 14.16-33.39 13.7-33.4 13.23-33.33 12.77-33.25 12.6-33.01 12.43-32.76 12.43-32.2L12.43-32.2ZM50.27-21.97L59.52-21.97Q59.79-21.9 59.79-21.63 59.79-21.36 59.74-21.28 59.69-21.19 59.51-21.13 59.32-21.07 58.99-21.02 58.66-20.97 57.96-20.84 57.25-20.7 56.69-19.85 56.13-18.99 55.49-17.48L55.49-17.48 44.02 10.96 42.43 14.33Q41.82 15.63 39.87 15.63L39.87 15.63Q39.01 15.63 38.5 15.06 37.99 14.5 37.99 13.73 37.99 12.96 38.36 12.61 38.74 12.26 39.26 12.04 39.77 11.82 40.32 11.63 40.87 11.45 41.55 10.8 42.23 10.16 42.36 9.84L42.36 9.84Q46.46 0.66 46.46 0.24 46.46-0.17 45.97-0.78L45.97-0.78 37.91-17.6Q37.01-20.07 34.81-20.78L34.81-20.78Q34.64-20.83 34.4-20.85L34.4-20.85Q33.37-20.95 33.37-21.46 33.37-21.97 33.96-21.97L33.96-21.97 44.82-21.97Q45.02-21.97 45.02-21.59 45.02-21.22 44.68-21.08 44.33-20.95 43.16-20.95L43.16-20.95Q41.28-20.95 41.28-19.48L41.28-19.48 41.5-18.9 47.82-5.35Q48.31-4.1 48.8-5.42L48.8-5.42Q48.85-5.54 49.41-7.01L49.41-7.01Q52.73-15.43 53.13-16.75 53.54-18.07 53.54-18.73 53.54-19.38 52.84-20.12 52.15-20.85 50.94-20.85 49.73-20.85 49.73-21.56L49.73-21.56Q49.73-21.97 50.27-21.97L50.27-21.97ZM75.39-18.77L68.04-18.77Q67.89-18.77 67.89-18.55L67.89-18.55 67.89-5.08Q67.89-3.61 68.54-2.78 69.18-1.95 70.19-1.95 71.19-1.95 71.93-2.28 72.68-2.61 73.22-3 73.77-3.39 74.21-3.72 74.65-4.05 75-4.05 75.34-4.05 75.34-3.88L75.34-3.88Q75.34-3.3 75.21-3.13L75.21-3.13Q72.29 0.66 69.56 0.66 66.84 0.66 65.46-1.06 64.08-2.78 64.08-5.18L64.08-5.18 64.08-18.77 62.25-18.77Q61.57-18.77 61.53-19.21 61.49-19.65 61.66-19.78L61.66-19.78Q62.96-20.61 65.23-22.75L65.23-22.75Q65.47-23.02 65.89-23.56 66.3-24.1 67.1-25.02 67.89-25.95 68.31-25.95 68.72-25.95 68.72-25.61L68.72-25.61Q68.72-25.56 67.89-22.41L67.89-22.41Q67.89-21.97 68.28-21.95L68.28-21.95 74.51-21.95Q75.58-21.95 75.58-18.92L75.58-18.92Q75.58-18.77 75.39-18.77L75.39-18.77ZM95.99-12.87L81.83-12.87Q81.41-12.87 81.41-11.08L81.41-11.08Q81.41-7.3 83.66-4.74 85.91-2.17 89.24-2.17 92.57-2.17 95.65-5.05L95.65-5.05Q95.7-5.1 95.77-5.1L95.77-5.1 95.89-5.1Q96.04-5.1 96.17-4.87 96.31-4.64 96.43-4.57L96.43-4.57Q93.6-1.12 89.76 0.2L89.76 0.2Q88.44 0.66 86.78 0.66 85.12 0.66 83.42-0.26 81.71-1.17 80.49-2.66L80.49-2.66Q77.9-5.76 77.9-10.39 77.9-15.01 80.72-18.82 83.54-22.63 88.47-22.63L88.47-22.63Q92.01-22.63 94.26-19.47 96.5-16.31 96.5-13.92L96.5-13.92Q96.5-12.87 95.99-12.87L95.99-12.87ZM82.1-15.5L82.1-15.21Q82.1-14.75 82.54-14.75L82.54-14.75 91.74-14.75Q92.38-14.75 92.38-15.5L92.38-15.5Q92.38-17.26 90.8-19.1 89.23-20.95 87.35-20.95L87.35-20.95Q85.51-20.95 84.01-19.29 82.51-17.63 82.1-15.5L82.1-15.5ZM123.69-19.75L133.26-19.75Q136.54-19.75 136.54-22.95L136.54-22.95Q136.54-23.14 136.73-23.14L136.73-23.14 137.32-23.14Q137.51-23.14 137.51-22.95L137.51-22.95 137.51-13.87Q137.51-13.67 137.32-13.67L137.32-13.67 136.73-13.67Q136.54-13.67 136.54-13.87L136.54-13.87Q136.54-16.11 135.27-16.97L135.27-16.97Q134.58-17.43 133.31-17.43L133.31-17.43 123.69-17.43Q123.11-17.43 123.11-16.77L123.11-16.77 123.11-4.22Q123.11-2.56 125.1-1.77 127.09-0.98 127.61-0.98 128.14-0.98 128.14-0.78L128.14-0.78 128.14-0.2Q128.14 0 127.94 0L127.94 0 114.61 0Q114.42 0 114.42-0.2L114.42-0.2 114.42-0.78Q114.42-0.98 114.83-0.98 115.25-0.98 116.13-1.37 117-1.76 117.68-2.53 118.35-3.3 118.35-4.39L118.35-4.39 118.35-30.76Q118.35-32.35 116.66-33.03L116.66-33.03Q115.69-33.45 114.73-33.45L114.73-33.45 114.64-33.45Q114.44-33.45 114.44-33.64L114.44-33.64 114.44-34.23Q114.44-34.42 114.64-34.42L114.64-34.42 137.66-34.42Q137.95-34.38 138.1-34.29 138.24-34.2 138.24-33.86L138.24-33.86 138.24-27.95Q138.24-27.66 138.16-27.59 138.07-27.51 137.85-27.51L137.85-27.51 137.56-27.51Q137.51-27.54 137.23-28.85 136.95-30.15 136.36-30.86L136.36-30.86Q135.36-31.93 134.09-32.06L134.09-32.06Q133.58-32.1 132.85-32.1L132.85-32.1 123.6-32.1Q123.11-32.1 123.11-31.62L123.11-31.62 123.11-20.31Q123.11-19.75 123.69-19.75L123.69-19.75ZM159.21 0.05L159.21-2.15Q159.09-2.56 158.9-2.43 158.7-2.29 157.31-1.59L157.31-1.59Q152.74 0.68 149.69 0.68 146.64 0.68 145.3-1.27L145.3-1.27Q144.81-2 144.81-3.08L144.81-3.08 144.81-17.97Q144.74-18.68 144.17-19.19L144.17-19.19Q143.42-19.82 142.6-19.87 141.78-19.92 141.78-20.37 141.78-20.83 142.17-20.92L142.17-20.92 147.76-22.53Q148.06-22.63 148.34-22.63 148.62-22.63 148.62-22.22L148.62-22.22 148.62-5.83Q148.62-4.13 150.13-3.2 151.65-2.27 154-2.27 156.36-2.27 158.24-3.71L158.24-3.71Q158.82-4.17 159.21-4.74L159.21-4.74 159.21-17.97Q159.14-18.68 158.58-19.19L158.58-19.19Q157.82-19.82 157-19.87 156.19-19.92 156.19-20.37 156.19-20.83 156.58-20.92L156.58-20.92 162.17-22.53Q162.46-22.63 162.74-22.63 163.02-22.63 163.02-22.14L163.02-22.14 163.02-4.81Q163.14-3.74 163.63-3.27 164.12-2.81 165.22-2.81L165.22-2.81 166.64-2.91Q166.78-2.91 166.78-2.62 166.78-2.34 166.42-2.17L166.42-2.17 159.92 0.51Q159.63 0.66 159.42 0.66 159.21 0.66 159.21 0.05L159.21 0.05ZM181.79-18.95L181.79-16.7Q181.79-16.16 181.39-16.16 180.99-16.16 180.77-16.75L180.77-16.75Q180.18-18.36 179.02-19.6 177.86-20.85 176.15-20.85L176.15-20.85Q173.91-20.85 173.13-18.6L173.13-18.6Q172.88-17.85 172.88-17.04 172.88-16.24 173.91-15.25 174.93-14.26 177.28-12.89 179.62-11.52 180.7-10.57L180.7-10.57Q183.14-8.4 183.14-5.54 183.14-2.69 181.04-1.01 178.94 0.66 176.15 0.66L176.15 0.66Q174.67 0.66 173.46 0.26 172.25-0.15 172.07-0.15 171.88-0.15 171.48 0.26 171.08 0.66 170.83 0.66L170.83 0.66 170.42 0.66Q170.27 0.66 170.05-1.98 169.83-4.61 169.83-5.1 169.83-5.59 169.92-5.64 170-5.69 170.2-5.69 170.39-5.69 170.53-5.57 170.66-5.44 170.76-5.26 170.86-5.08 170.92-4.88 170.98-4.69 171.22-4.15L171.22-4.15Q172.88-0.61 176.35-0.61L176.35-0.61Q177.89-0.61 178.82-1.75 179.74-2.88 179.74-4.27 179.74-5.66 179.01-6.62 178.28-7.57 177.19-8.35 176.11-9.13 174.84-9.86L174.84-9.86Q169.9-12.74 169.9-16.24L169.9-16.24Q169.9-18.85 172.15-20.74 174.4-22.63 176.76-22.63 179.13-22.63 180.27-22.12 181.4-21.61 181.6-21.25 181.79-20.9 181.79-18.95L181.79-18.95ZM197.56 0L186.67 0Q186.43-0.05 186.43-0.34L186.43-0.34Q186.43-0.78 187.58-0.93L187.58-0.93Q190.21-1.32 190.21-3.71L190.21-3.71 190.21-16.63Q190.21-17.65 189.09-18.04L189.09-18.04Q188.6-18.21 188.04-18.32 187.48-18.43 187.15-18.53 186.82-18.63 186.74-18.71 186.65-18.8 186.65-19.08 186.65-19.36 187.02-19.56L187.02-19.56 193.24-22.49Q193.53-22.63 193.61-22.63L193.61-22.63Q194.02-22.63 194.02-22.05L194.02-22.05 194.02-3.71Q194.02-1.32 196.66-0.93L196.66-0.93Q197.81-0.78 197.81-0.42 197.81-0.05 197.56 0L197.56 0ZM191.76-29.49Q190.75-29.49 189.98-30.13 189.21-30.76 189.21-31.9 189.21-33.03 189.95-33.69 190.68-34.35 191.69-34.35 192.7-34.35 193.4-33.57 194.1-32.79 194.1-31.88 194.1-30.98 193.44-30.24 192.78-29.49 191.76-29.49ZM200.86-10.97Q200.86-15.77 204.26-19.23 207.67-22.68 212.43-22.68 217.19-22.68 220.71-19.32 224.22-15.97 224.22-11.04 224.22-6.1 220.89-2.72 217.56 0.66 212.53 0.66 207.5 0.66 204.18-2.76 200.86-6.18 200.86-10.97ZM206.94-4.69L206.94-4.69Q209.33-0.66 213.45-0.66L213.45-0.66Q216.65-0.66 218.35-3.22 220.05-5.79 220.05-9.52 220.05-13.26 217.67-17.19 215.29-21.12 211.26-21.12L211.26-21.12Q208.3-21.12 206.61-18.57 204.91-16.02 204.91-12.1 204.91-8.18 206.94-4.69ZM245.68-7.69L245.68-7.69 245.63-12.84Q245.63-15.99 245.09-17.26 244.56-18.53 243.73-19.18 242.89-19.82 241.49-19.82 240.09-19.82 235.55-17.63L235.55-17.63Q234.94-17.26 234.91-16.94L234.91-16.94 234.91-3.81Q234.91-1.34 237.55-0.98L237.55-0.98Q238.7-0.81 238.7-0.43 238.7-0.05 238.45 0L238.45 0 227.56 0Q227.32-0.05 227.32-0.34L227.32-0.34Q227.32-0.81 228.47-0.98L228.47-0.98Q231.1-1.34 231.1-3.81L231.1-3.81 231.1-17.82Q231.1-18.85 229.98-19.24L229.98-19.24Q229.49-19.41 228.93-19.52 228.37-19.63 228.04-19.73 227.71-19.82 227.62-19.91 227.54-20 227.54-20.28 227.54-20.56 227.9-20.75L227.9-20.75 234.13-23.68Q234.42-23.83 234.5-23.83L234.5-23.83Q234.91-23.83 234.91-23.24L234.91-23.24 234.91-19.43Q234.98-19.19 235.11-19.19L235.11-19.19Q235.25-19.19 236.16-19.63L236.16-19.63Q238.26-20.68 240.38-21.66 242.5-22.63 243.9-22.63L243.9-22.63Q249.54-22.63 249.54-12.35L249.54-12.35 249.32-5.22 249.32-3.81Q249.32-1.9 251.22-1.32L251.22-1.32Q252.03-1.05 252.77-0.94 253.52-0.83 253.75-0.73 253.98-0.63 253.98-0.34 253.98-0.05 253.73 0L253.73 0 241.97 0Q241.72-0.05 241.72-0.34L241.72-0.34Q241.72-0.81 242.87-0.98L242.87-0.98Q245.48-1.34 245.48-4L245.48-4Q245.68-5.22 245.68-7.69Z" opacity="1" transform="matrix(1,0,0,1,0,0)" fill="#ffffff" class="wordmark-text-0" data-fill-palette-color="primary" id="text-0"></path></svg></g></svg></g></svg></g></svg></g><g transform="matrix(1,0,0,1,64.57554083399764,0)"><svg viewBox="0 0 62.84891833200472 52.793091398883966" height="52.793091398883966" width="62.84891833200472"><g><svg xmlns="http://www.w3.org/2000/svg" xmlns:xlink="http://www.w3.org/1999/xlink" version="1.1" x="0" y="0" viewBox="7 11 50 42" enable-background="new 0 0 64 64" xml:space="preserve" height="52.793091398883966" width="62.84891833200472" class="icon-icon-0" data-fill-palette-color="accent" id="icon-0"><g fill="#24a8df" data-fill-palette-color="accent"><g fill="#24a8df" data-fill-palette-color="accent"><path d="M57 19H7v26h50V19zM15 41c0 0.553-0.448 1-1 1s-1-0.447-1-1v-2c0-0.553 0.448-1 1-1s1 0.447 1 1V41zM15 34c0 0.553-0.448 1-1 1s-1-0.447-1-1v-2c0-0.552 0.448-1 1-1s1 0.448 1 1V34zM15 26c0 0.552-0.448 1-1 1s-1-0.448-1-1v-2c0-0.552 0.448-1 1-1s1 0.448 1 1V26zM21 41c0 0.553-0.448 1-1 1s-1-0.447-1-1v-2c0-0.553 0.448-1 1-1s1 0.447 1 1V41zM21 26c0 0.552-0.448 1-1 1s-1-0.448-1-1v-2c0-0.552 0.448-1 1-1s1 0.448 1 1V26zM27 41c0 0.553-0.448 1-1 1s-1-0.447-1-1v-2c0-0.553 0.448-1 1-1s1 0.447 1 1V41zM27 34c0 0.553-0.448 1-1 1s-1-0.447-1-1v-2c0-0.552 0.448-1 1-1s1 0.448 1 1V34zM27 26c0 0.552-0.448 1-1 1s-1-0.448-1-1v-2c0-0.552 0.448-1 1-1s1 0.448 1 1V26zM33 34c0 0.553-0.448 1-1 1s-1-0.447-1-1v-2c0-0.552 0.448-1 1-1s1 0.448 1 1V34zM33 26c0 0.552-0.448 1-1 1s-1-0.448-1-1v-2c0-0.552 0.448-1 1-1s1 0.448 1 1V26zM39 26c0 0.552-0.447 1-1 1s-1-0.448-1-1v-2c0-0.552 0.447-1 1-1s1 0.448 1 1V26zM45 34c0 0.553-0.447 1-1 1s-1-0.447-1-1v-2c0-0.552 0.447-1 1-1s1 0.448 1 1V34zM45 26c0 0.552-0.447 1-1 1s-1-0.448-1-1v-2c0-0.552 0.447-1 1-1s1 0.448 1 1V26zM51 41c0 0.553-0.447 1-1 1s-1-0.447-1-1v-2c0-0.553 0.447-1 1-1s1 0.447 1 1V41zM50 35c-0.553 0-1-0.447-1-1v-2c0-0.552 0.447-1 1-1s1 0.448 1 1v2C51 34.553 50.553 35 50 35z" fill="#ffffff" data-fill-palette-color="accent"></path><path d="M57 17v-5c0-0.552-0.447-1-1-1H8c-0.552 0-1 0.448-1 1v5H57z" fill="#ffffff" data-fill-palette-color="accent"></path><path d="M7 47v5c0 0.553 0.448 1 1 1h48c0.553 0 1-0.447 1-1v-5H7z" fill="#ffffff" data-fill-palette-color="accent"></path></g></g></svg></g></svg></g><g></g></svg></g></svg></g></svg></g></svg></g><defs></defs></svg><rect width="320" height="360" fill="none" stroke="none" visibility="hidden"></rect></g></svg></g></svg>